<svg version="1.2" xmlns="http://www.w3.org/2000/svg" viewBox="0 0 220 354" width="220" height="354">
	<title>4407-ai</title>
	<style>
		.s0 { fill: #190623 } 
		.s1 { fill: #33e6ff } 
		.s2 { fill: #0ce4e7 } 
	</style>
	<g id="&lt;Group&gt;">
		<g id="&lt;Group&gt;">
			<path id="Axo base 1012 " class="s0" d="m163.7 302c-30.6 17.7-80.2 17.7-110.8 0-30.6-17.7-30.6-46.3 0-63.9 30.6-17.7 80.2-17.7 110.8 0 30.6 17.6 30.6 46.2 0 63.9z"/>
			<g id="&lt;Group&gt;">
				<path id="Axo base 1009 " class="s1" d="m63.6 242.8c-5.9 3.4-10.5 7.3-13.8 11.4q1 0 2 0c9.2-11.3 25.8-17.5 40.2-19.9 0.1-0.3 0.2-0.5 0.7-0.6 0.6-0.1 0.9 0.1 1.2 0.3 17.9-2.7 37.5-0.9 53.3 5.4 0.7-0.2 1.4-0.3 2.2-0.4-25.9-10.8-62.4-9.6-85.8 3.8z"/>
				<path id="Axo Compound 223 " fill-rule="evenodd" class="s1" d="m88.7 238c-2.4-1.4-2.4-3.6 0-5 2.4-1.4 6.4-1.4 8.8 0 2.4 1.4 2.4 3.6 0 5-2.4 1.4-6.4 1.4-8.8 0zm7.5-4.3c-1.7-1-4.5-1-6.3 0-1.7 1-1.7 2.6 0 3.6 1.8 1 4.6 1 6.3 0 1.8-1 1.8-2.6 0-3.6z"/>
				<path id="Axo Compound 222 " fill-rule="evenodd" class="s1" d="m89.6 237.5c-2-1.1-2-2.9 0-4 1.9-1.2 5.1-1.2 7 0 1.9 1.1 1.9 2.9 0 4-1.9 1.1-5.1 1.1-7 0zm5.8-3.3c-1.3-0.7-3.3-0.7-4.6 0-1.2 0.7-1.2 1.9 0 2.6 1.3 0.7 3.3 0.7 4.6 0 1.2-0.7 1.2-1.9 0-2.6z"/>
				<path id="Axo base 1007 " class="s1" d="m126.6 253.1c-0.2 0.1-0.4 0.2-1 0.6-1.1-0.3 2.6 1.7-32.2-18.6l-11.3 23.9q-0.8-0.1-1.7-0.2l11.7-24.8c0.2-0.3 1-0.5 1.5-0.2z"/>
				<path id="Axo Compound 221 " fill-rule="evenodd" class="s1" d="m91.6 236.3c-0.8-0.4-0.8-1.2 0-1.6 0.8-0.5 2.1-0.5 2.9 0 0.8 0.4 0.8 1.2 0 1.6-0.8 0.5-2.1 0.5-2.9 0zm1.7-0.9c-0.3-0.2-0.7 0.1-0.4 0.2 0.3 0.2 0.7-0.1 0.4-0.2z"/>
				<path id="Axo base 1006 " class="s1" d="m141.8 241.8q-0.5 0.4-0.9 0.9c-12.2-4.7-26.8-6.4-40.8-5.1l-1.5-0.9c14.7-1.5 30.3 0.2 43.2 5.1z"/>
				<path id="Axo base 1005 " class="s1" d="m98 237.8q-3.2 0.4-6.3 1l0.5-1.2q2.2-0.3 4.4-0.6z"/>
				<path id="Axo base 999 " class="s1" d="m90.2 238l-0.5 1.2c-11.4 2.3-24 7.4-31.7 16.1q-0.7-0.3-1.5-0.5c8.1-9.2 21.7-14.5 33.7-16.8z"/>
				<path id="Axo base 997 " class="s1" d="m100.7 249.7q-0.9 0.1-1.7 0.3l-5.4-11.4 1.7-0.3z"/>
				<path id="Axo Compound 205 " fill-rule="evenodd" class="s1" d="m149.4 239c0.9 0 1.3 0.8 0.4 1-6 1.4-7.6 6-2.9 8.8 4.5 2.6 12.6 2 15.3-1.6 0.4-0.5 1.9-0.3 1.7 0.3-2.1 5.7-14.1 7.4-20.8 3.5-1.9-1.1-3.6-2.9-3.6-5.1 0-4.1 5.6-6.4 9.9-6.9zm-3.7 10.5c-3.4-2-4.2-4.9-2.2-7.3-3.3 2.4-3 5.8 0.8 8.1 3.9 2.2 9.9 2.4 14 0.5-4.1 1.1-9.2 0.7-12.6-1.3z"/>
				<path id="Axo base 996 " class="s1" d="m151.3 239.9q-1 0.1-1.9 0.4-0.2-0.1-0.3-0.1c0.5-0.2 1.4-0.3 1.2-0.8q0.5 0.2 1 0.5z"/>
				<path id="Axo Compound 204 " fill-rule="evenodd" class="s1" d="m160 241.3c3 1.8 3.3 4.3 1.7 6.1-2.8 3.3-10.3 3.8-14.6 1.3-4.4-2.6-3.1-6.8 2.3-8.4 3.3-1 7.7-0.7 10.6 1zm-12.1 0.4c-3.1 1.8-3.1 4.7 0 6.5 3.2 1.8 8.2 1.9 11.3 0.1 3.1-1.8 3.1-4.7 0-6.5-3.1-1.8-8.2-1.9-11.3-0.1z"/>
				<path id="Axo Compound 203 " fill-rule="evenodd" class="s1" d="m159.2 241.8c3.1 1.8 3.1 4.7 0 6.5-3.1 1.8-8.1 1.7-11.3-0.1-3.1-1.8-3.1-4.7 0-6.5 3.1-1.8 8.2-1.7 11.3 0.1zm-10 0.6c-2.5 1.4-2.4 3.7 0 5.1 2.4 1.4 6.4 1.4 8.8 0.1 2.4-1.4 2.4-3.7 0-5.1-2.5-1.4-6.4-1.5-8.8-0.1z"/>
				<path id="Axo Compound 202 " fill-rule="evenodd" class="s1" d="m156.7 243.2c1.7 1 1.7 2.6 0 3.6-1.7 1-4.5 1-6.3 0-1.7-1-1.7-2.6 0-3.6 1.8-1 4.6-1 6.3 0zm-0.7 0.4c-1.4-0.7-3.5-0.8-4.8 0-1.3 0.7-1.3 2 0 2.8 1.3 0.7 3.4 0.7 4.8 0 1.3-0.8 1.3-2 0-2.8z"/>
				<path id="Axo base 995 " class="s1" d="m145 243.1q-0.3 0.6-0.5 1.1-0.1-0.1-0.2-0.1 0.1-0.6 0.5-1.1 0.1 0.1 0.2 0.1z"/>
				<path id="Axo Compound 201 " fill-rule="evenodd" class="s1" d="m156 246.4c-1.4 0.7-3.5 0.7-4.8 0-1.3-0.8-1.3-2.1 0-2.8 1.3-0.8 3.4-0.7 4.8 0 1.3 0.8 1.3 2 0 2.8zm-1.3-0.7c0.7-0.4 0.7-1 0-1.4-0.6-0.3-1.7-0.4-2.3 0-0.6 0.4-0.6 1 0 1.3 0.7 0.4 1.7 0.4 2.3 0.1z"/>
				<path id="Axo base 994 " class="s1" d="m144.7 246.2h-0.3q-0.2-0.5-0.2-1h0.3q0 0.5 0.2 1z"/>
				<path id="Axo base 993 " class="s1" d="m139.6 246.9l-18.6 2.9-1.4-0.9 19.9-3q0 0.5 0.1 1z"/>
				<path id="Axo base 989 " class="s1" d="m163.4 247c-0.4-0.1-1-0.1-1.2 0.2q-0.1 0.2-0.3 0.3-0.1 0-0.2-0.1 0.5-0.6 0.7-1.1 0.5 0.3 1 0.7z"/>
				<path id="Axo base 988 " class="s1" d="m175.1 278.8q-0.3-0.8-1.3-1.5c3-8.9 0.7-19.5-10.5-28.7 0.2-0.2 0.6-1 0.6-1.2q0 0 0-0.1c12.6 9.9 15.1 21.7 11.2 31.5z"/>
				<path id="Axo base 987 " class="s1" d="m119 250.1l-7.8 1.2q-3-0.1-6 0.1-0.1-0.1-0.2-0.2l12.6-2z"/>
				<path id="Axo Compound 187 " fill-rule="evenodd" class="s1" d="m99 250c2-0.6 5.2-0.3 6.2 1.4 0.6 1 0 2-1.1 2.6-1.9 1.1-5.1 0.9-6.6-0.5-1.2-1-0.9-2.7 1.5-3.5zm-0.4 3.6c1.4 0.8 3.6 0.8 5 0 1.3-0.7 1.3-2 0-2.8-1.4-0.8-3.6-0.8-5 0-1.3 0.7-1.3 2 0 2.8z"/>
				<path id="Axo base 985 " class="s1" d="m156.9 250.1q-0.9 0.2-1.8 0.3-0.1-0.1-0.2-0.2c2.1-0.2 1.6-0.4 2-0.1z"/>
				<path id="Axo base 983 " class="s1" d="m153.4 250.3v0.1q-0.9 0-1.8-0.1c0.1-0.3-0.2-0.1 1.8 0z"/>
				<path id="Axo Compound 186 " fill-rule="evenodd" class="s1" d="m98.6 250.8c1.4-0.8 3.6-0.8 5 0 1.3 0.8 1.3 2.1 0 2.8-1.4 0.8-3.6 0.8-5 0-1.3-0.8-1.3-2.1 0-2.8zm3.7 2.1c0.7-0.4 0.7-1 0-1.4-0.6-0.4-1.7-0.4-2.4 0-0.7 0.4-0.7 1 0 1.4 0.6 0.4 1.7 0.4 2.4 0z"/>
				<path id="Axo base 977 " class="s1" d="m125.6 253.7q-0.6 0.4-0.9 0.9c-6-2-12.7-2.7-19.3-2.2q0-0.6-0.2-1c6.7-0.5 13.9 0.2 20.4 2.3z"/>
				<path id="Axo Compound 185 " fill-rule="evenodd" class="s1" d="m99.9 252.9c-0.6-0.4-0.6-1 0.1-1.4 0.6-0.3 1.6-0.3 2.3 0 0.6 0.4 0.6 1-0.1 1.4-0.6 0.3-1.6 0.3-2.3 0zm1.1-0.8c-0.1 0.1 0.1 0.2 0.2 0.1 0.1 0-0.1-0.1-0.2-0.1z"/>
				<path id="Axo Compound 220 " fill-rule="evenodd" class="s1" d="m139.4 253.2c4.3 2.6 3.2 6.9-2.6 8.5-3.4 1-7.6 0.6-10.5-1-2.8-1.7-3.4-4.2-1.6-6.1 2.8-3.3 10.3-3.9 14.7-1.4zm-11.8 6.8c2.9 1.7 7.6 1.7 10.5 0 2.9-1.7 2.9-4.4 0-6.1-2.9-1.6-7.6-1.7-10.5 0-2.9 1.7-2.9 4.4 0 6.1z"/>
				<path id="Axo base 975 " class="s1" d="m167.6 276c-1.6 0.2-0.9 0.4-1.8-0.1 2.7-9-1.3-17.3-8.3-23.5q0.7-0.3 1.5-0.6c7.1 6.5 11.2 15 8.6 24.2z"/>
				<path id="Axo base 969 " class="s1" d="m96.9 252.6q-3 0.7-5.7 1.7l-7.4 1.1 0.5-1.1 12.5-1.9q0 0.1 0.1 0.2z"/>
				<path id="Axo base 967 " class="s1" d="m97.5 253.5c-6 1.4-10.5 3.7-13.5 6.1q-0.8-0.3-1.6-0.5c4.1-3.3 9.4-5.3 14.5-6.5q0.1 0.5 0.6 0.9z"/>
				<path id="Axo Compound 219 " fill-rule="evenodd" class="s1" d="m127.8 254c2.8-1.6 7.4-1.6 10.2 0 2.8 1.7 2.8 4.3-0.1 5.9-2.8 1.6-7.4 1.6-10.2 0-2.8-1.6-2.8-4.3 0.1-5.9zm1.2 5.2c2.1 1.2 5.6 1.2 7.7 0 2.2-1.2 2.2-3.2 0-4.5-2.1-1.2-5.6-1.2-7.7 0-2.2 1.2-2.2 3.2 0 4.5z"/>
				<path id="Axo base 966 " class="s1" d="m152.1 253.1l-5.5 11.6-1.4-0.8 5.1-10.9q0.9 0.1 1.8 0.1z"/>
				<path id="Axo Compound 200 " fill-rule="evenodd" class="s1" d="m41.7 265.8c-0.6-0.5 0.4-1.1 1.3-0.7 4.8 2.4 12.7 1.2 14.8-2.6 1.3-2.3-0.3-4.6-2.8-5.8-2-1-4.5-1.4-6.6-1.3-1.1 0.1-1.3-0.8-0.3-1 4.5-0.7 10.6 0.1 13.8 3.3 1.6 1.6 2.2 3.7 1 5.8-3 5.4-15.1 6.7-21.2 2.3zm7.5 1.5c5.2 0.6 10.4-1.1 12.1-4.1 1.6-3-0.8-6.2-5.6-7.5 3.2 1.4 5.4 4.2 3.8 7.1-1.5 2.7-5.7 4.4-10.3 4.5z"/>
				<path id="Axo base 965 " class="s1" d="m82.4 254.6l-0.5 1.1-19.2 2.9q-0.4-0.5-0.8-0.9z"/>
				<path id="Axo Compound 218 " fill-rule="evenodd" class="s1" d="m131 255.9c1-0.7 2.7-0.6 3.8 0 1 0.6 1 1.6-0.1 2.2-1 0.6-2.7 0.6-3.8 0-1-0.7-1-1.6 0.1-2.2zm1.2 1.4c0.3 0.3 0.9 0.3 1.3 0 0.4-0.2 0.4-0.5 0-0.7-0.3-0.2-0.9-0.2-1.3 0-0.4 0.2-0.4 0.5 0 0.7z"/>
				<path id="Axo base 964 " class="s1" d="m50.8 255.5q-0.1 0.1-0.1 0.2c-2-0.3-2 0-1.7-0.3q0.9 0 1.8 0.1z"/>
				<path id="Axo Compound 199 " fill-rule="evenodd" class="s1" d="m40.3 259.3c2.5-4.6 13.1-5 16.7-0.9 3.7 4.3-3.4 8.9-10.9 7.5-3.8-0.7-7.7-3.4-5.8-6.6zm1.5 3.7c1.1 1.3 3 2 4.6 2.3 6.7 1.2 12.8-2.9 9.6-6.5-3.2-3.7-12.4-3.3-14.6 0.7-0.7 1.1-0.5 2.4 0.4 3.5z"/>
				<path id="Axo Compound 188 " fill-rule="evenodd" class="s1" d="m118.6 256c1.1-0.1 1.6 0.7 0.6 1-3.2 0.9-6.1 3.2-4.9 6.1 2.3 5.2 14.8 5.6 17.9 0.8 0.4-0.6 1.9-0.4 1.7 0.2-1.6 5.8-13.8 7.9-20.9 3.8-6.7-3.9-3.6-10.6 5.6-11.9zm-4 11.4c4.1 2.1 10.1 2.1 14.1 0.2-4 1.2-9.1 0.9-12.8-1-3.6-1.9-4.5-4.8-2.8-7.3-3.2 2.6-2.3 6.1 1.5 8.1z"/>
				<path id="Axo Compound 198 " fill-rule="evenodd" class="s1" d="m43.3 264.2c-1.9-1.1-3-2.9-1.9-4.7 2.2-4 11.4-4.4 14.6-0.7 3.2 3.7-3 7.7-9.6 6.5-1.2-0.3-2.3-0.6-3.1-1.1zm0.1-1.7c0.7 0.9 2 1.5 3.6 1.8 5.2 1 9.9-2.2 7.4-5.1-2.4-2.8-9.6-2.5-11.4 0.6-0.5 0.9-0.4 1.9 0.4 2.7z"/>
				<path id="Axo base 961 " class="s1" d="m56.3 257.5c-0.3 0.3 0.1 0.1-1.4-0.7q0 0 0.1-0.1 0.7 0.3 1.3 0.8z"/>
				<path id="Axo Compound 197 " fill-rule="evenodd" class="s1" d="m44.7 260.1c0.9-1.6 3.7-2 5.6-1.7 3.7 0.7 4.1 3.7 0.6 4.7-1.8 0.6-3.9 0.3-5.1-0.4-1-0.6-1.7-1.6-1.1-2.6zm1 0.2c-0.7 1.2 0.7 2.2 2.2 2.4 1.7 0.4 3.6-0.2 4.2-1.2 0.6-1.1-0.4-2.2-2.1-2.5-1.8-0.3-3.7 0.2-4.3 1.3z"/>
				<path id="Axo base 960 " class="s1" d="m57.9 259.3l-0.3 0.1c-0.1-0.3-0.6-1-0.6-1h0.3q0.4 0.5 0.6 0.9z"/>
				<path id="Axo Compound 211 " fill-rule="evenodd" class="s1" d="m72.5 260.2c3.6-2 9.5-2 13 0.1q-0.2 0.2-0.1 0.4c0.2 0.3 0.8 0.4 1.1 0.3 4.4 3.7-0.6 8.8-8.6 8.3-7.4-0.5-11-5.9-5.4-9.1zm1.3 0.8c-3 1.6-3 4.4-0.1 6 2.9 1.7 7.6 1.7 10.5 0.1 2.9-1.7 2.9-4.4 0.1-6.1-2.9-1.7-7.6-1.7-10.5 0z"/>
				<path id="Axo Compound 196 " fill-rule="evenodd" class="s1" d="m50 259c1.7 0.3 2.7 1.4 2.1 2.5-0.8 1.4-3.8 1.8-5.6 0.8-2.4-1.5 0.1-3.9 3.5-3.3zm0.4 2.2c0.3-0.5-0.1-1.1-1-1.2-0.8-0.2-1.8 0.1-2 0.6-0.3 0.5 0.1 1 1 1.2 0.8 0.1 1.8-0.1 2-0.6z"/>
				<path id="Axo Compound 190 " fill-rule="evenodd" class="s1" d="m85.4 260.7c-0.2-0.3 0.1-0.5 0.5-0.6 4.2-1.2 9.6-0.8 13.4 1.2 2.4 1.4 4.4 3.6 3.7 6.3-1 4.1-7 6-11.3 6.1-3 0.1-6.3-0.4-9-1.8-0.7-0.4 0.2-1.1 1.1-0.8 3.1 1.1 7.2 1 10.2-0.3 6.7-2.9 4.1-9.1-4.1-9.8-3-0.3-4.1 0.4-4.5-0.3zm15.9 6.8c0.8-3.1-2.5-6-7.5-6.8 3.2 1 6.5 3.4 5.6 6.6-0.8 3.3-5.3 5-8.8 5.4 5.2 0.1 9.9-2.1 10.7-5.2z"/>
				<path id="Axo base 959 " class="s1" d="m110.7 259.7q-0.4 0.5-0.7 1c-3.3-0.1-6.6 0.4-9.5 1.4q-0.6-0.4-1.2-0.8c3.4-1.2 7.5-1.8 11.4-1.6z"/>
				<path id="Axo Compound 210 " fill-rule="evenodd" class="s1" d="m84.1 261.1c2.8 1.6 2.8 4.3 0 5.9-2.9 1.6-7.5 1.6-10.3 0-2.8-1.7-2.7-4.3 0.1-6 2.8-1.6 7.4-1.6 10.2 0.1zm-1.3 5.2c2.2-1.3 2.2-3.3 0.1-4.5-2.1-1.3-5.6-1.3-7.8 0-2.1 1.2-2.1 3.2 0 4.4 2.1 1.3 5.6 1.3 7.7 0.1z"/>
				<path id="Axo base 955 " class="s1" d="m126.8 267q-0.8 0.1-1.7 0.2c-2.1-3.5-6.9-5.4-11-6.1q0.1-0.5 0.4-1c4.5 0.8 10 2.9 12.3 6.9z"/>
				<path id="Axo base 954 " class="s1" d="m166.4 276.2q-0.8 0.3-1.5 0.6c-28-16.3-26.2-15.2-26.6-15.6 0.8-0.3 1-0.5 1.2-0.6z"/>
				<path id="Axo base 951 " class="s1" d="m142.1 272.7q-0.8-0.2-1.7-0.2c0.8-4.1-0.8-7.8-3.6-10.8q0.8-0.2 1.5-0.5c3.1 3.2 4.7 7.2 3.8 11.5z"/>
				<path id="Axo base 950 " class="s1" d="m109.6 261.5q-0.1 0.5-0.2 1.1c-2.5-0.1-5 0.3-7.3 1.1q-0.3-0.5-0.8-0.9c2.6-0.9 5.5-1.3 8.3-1.3z"/>
				<path id="Axo base 947 " class="s1" d="m123.5 267.3q-1 0-1.9-0.1c-1.7-2.2-4.6-3.5-7.3-4.1q-0.2-0.5-0.3-1.1c3.5 0.7 7.6 2.3 9.5 5.3z"/>
				<path id="Axo Compound 209 " fill-rule="evenodd" class="s1" d="m77.1 265.1c-1.1-0.6-1.1-1.6 0-2.2 1-0.6 2.8-0.6 3.8 0 1 0.6 1 1.6 0 2.2-1.1 0.6-2.8 0.6-3.8 0zm2.5-0.7c0.4-0.2 0.4-0.6 0.1-0.8-0.4-0.2-1-0.2-1.4 0-0.4 0.2-0.4 0.6 0 0.8 0.4 0.2 1 0.2 1.3 0z"/>
				<path id="Axo base 946 " class="s1" d="m96.8 263.9c-2.7 1.7-4.8 4.3-4.3 7.4q-0.8 0.2-1.6 0.3c-0.8-3.6 1.7-6.7 4.9-8.6 0.3 0.2 0.5 0.4 1 0.9z"/>
				<path id="Axo base 943 " class="s1" d="m55.4 264.7q-0.6 0.4-1.3 0.7l-0.2-0.1c1.6-0.7 1.2-0.8 1.5-0.6z"/>
				<path id="Axo base 941 " class="s1" d="m97.8 266.2c-1.2 1.1-1.9 2.3-2 3.5q-0.8 0.6-1.8 1.1c-0.2-2.5 1.4-4.6 3.4-6q0.4 0.7 0.4 1.4z"/>
				<path id="Axo base 940 " class="s1" d="m146.1 265.8l-3.4 7.2q-0.3-0.2-0.6-0.3 0.3-1.4 0.2-2.8l2.3-4.9z"/>
				<path id="Axo base 935 " class="s1" d="m46.1 265.9q0 0.1-0.1 0.2-0.9-0.2-1.6-0.4c0-0.4-0.2-0.1 1.7 0.2z"/>
				<path id="Axo base 934 " class="s1" d="m52.4 265.7q0 0.1-0.1 0.2-0.8 0.2-1.8 0.3c0.1-0.3-0.2 0.1 1.9-0.5z"/>
				<path id="Axo base 933 " class="s1" d="m72.8 274.9l-0.5 1.1-14.7-8.6q0.7-0.3 1.4-0.6z"/>
				<path id="Axo base 931 " class="s1" d="m60.4 293.9q-0.3 0.7-0.1 1.4c-10-6.6-17.7-16.4-16.2-28.2q0.8 0.4 1.7 0.6c-1.2 10.8 5.7 19.9 14.6 26.2z"/>
				<path id="Axo Compound 181 " fill-rule="evenodd" class="s1" d="m106.4 268.5c1.7-1 4.4-1 6.1 0 1.6 1 1.6 2.5-0.1 3.5-1.6 1-4.4 1-6 0-1.7-1-1.7-2.6 0-3.5zm0.5 0.3c-1.3 0.8-1.3 2.1 0 2.9 1.4 0.8 3.6 0.8 5 0 1.3-0.8 1.4-2.1 0-2.9-1.4-0.8-3.6-0.8-5 0z"/>
				<path id="Axo Compound 180 " fill-rule="evenodd" class="s1" d="m106.9 268.8c1.4-0.8 3.6-0.8 5 0 1.4 0.8 1.3 2.1 0 2.9-1.4 0.8-3.6 0.8-5 0-1.3-0.8-1.3-2.1 0-2.9zm1.3 0.7c-0.7 0.4-0.7 1.1 0 1.5 0.6 0.3 1.8 0.4 2.4 0 0.7-0.4 0.7-1.1 0.1-1.5-0.7-0.4-1.8-0.4-2.5 0z"/>
				<path id="Axo base 927 " class="s1" d="m64.8 291.4q-0.9 0.1-1.7 0.4c-7.9-5.7-13.9-13.8-12.9-23.4q0.9 0.1 1.7 0c-0.9 9.5 5.1 17.4 12.9 23z"/>
				<path id="Axo base 925 " class="s1" d="m76.2 269.1q-0.1 1.2 0 2.4l-9.3 19.7q-1 0-1.9 0.1l10.6-22.4q0.3 0.1 0.6 0.2z"/>
				<path id="Axo base 924 " class="s1" d="m84.2 281.3c-0.6 0.2-1 0.4-1.3 0.6-4.2-3.2-7.3-7.6-6.7-12.8q0.8 0.1 1.7 0.2c-0.5 4.9 2.4 9 6.3 12z"/>
				<path id="Axo base 921 " class="s1" d="m125.1 275.8q-0.6-0.3-1.3-0.6c1.5-1.5 2.4-3.4 2.1-5.6q0.9-0.1 1.7-0.4c0.5 2.5-0.6 4.9-2.5 6.6z"/>
				<path id="Axo Compound 179 " fill-rule="evenodd" class="s1" d="m108.3 269.6c0.6-0.4 1.6-0.4 2.3 0 0.6 0.3 0.6 0.9 0 1.3-0.7 0.4-1.7 0.4-2.3 0-0.7-0.4-0.7-1 0-1.3zm1 0.7c0.1 0.1 0.3 0 0.2-0.1-0.1-0.1-0.3 0-0.2 0.1z"/>
				<path id="Axo base 920 " class="s1" d="m122.5 274.7q-0.8-0.2-1.6-0.4c1.2-1.2 1.9-2.7 1.8-4.3q0.9 0 1.8-0.1c0.1 1.8-0.7 3.5-2 4.8z"/>
				<path id="Axo Compound 184 " fill-rule="evenodd" class="s1" d="m142.7 273c3.3 1.4 1.5 4.5-2.7 4.4-1.2 0-2.3-0.3-2.9-0.7-2.8-1.6-0.7-4.4 3.3-4.2 0.8 0 1.6 0.1 2.3 0.5zm-5.1 0.5c-1.3 0.8-1.3 2.1 0 2.9 1.4 0.8 3.6 0.8 5 0 1.3-0.8 1.4-2.1 0-2.9-1.4-0.8-3.6-0.8-5 0z"/>
				<path id="Axo Compound 183 " fill-rule="evenodd" class="s1" d="m142.6 273.5c1.4 0.8 1.3 2.1 0 2.9-1.4 0.8-3.6 0.8-5 0-1.3-0.8-1.3-2.1 0-2.9 1.4-0.8 3.6-0.8 5 0zm-1.2 0.7c-0.7-0.4-1.8-0.4-2.5 0-0.7 0.4-0.7 1.1 0 1.5 0.6 0.4 1.8 0.4 2.4 0 0.7-0.4 0.7-1.1 0.1-1.5z"/>
				<path id="Axo base 917 " class="s1" d="m105.2 277.8q-0.4 0.4-0.7 0.9c-3.5-0.6-7.7-2.3-9.6-5.4q0.8-0.1 1.6-0.4c1.7 2.8 5.5 4.3 8.7 4.9z"/>
				<path id="Axo base 916 " class="s1" d="m104.2 279.6q-0.2 0.5-0.2 1c-4.6-0.8-10.1-2.9-12.3-6.9q0.9 0 1.7-0.1c2.1 3.4 6.8 5.3 10.8 6z"/>
				<path id="Axo Compound 189 " fill-rule="evenodd" class="s1" d="m127.4 284c-0.5 0.6-1.9 0.3-1.7-0.3 1.2-2.4-0.6-4.5-3.1-5.6-4.1-1.9-10.3-1.6-13.7 1-2.1 1.7-2.3 3.9-0.7 5.7 0.5 0.5-0.7 1-1.4 0.5-3.7-2.5-3.9-6.2-0.1-8.9 4.4-3.1 12-3.4 17.1-1.2 4.3 1.8 6.6 5.5 3.6 8.8zm-0.7-4.5c-0.4-1.1-1.4-2.1-2.7-2.9-6.6-3.8-18.2-1.2-18.3 4.2 2.5-5.9 16.5-6.6 21-1.3z"/>
				<path id="Axo Compound 182 " fill-rule="evenodd" class="s1" d="m141.3 274.3c0.6 0.3 0.6 0.9 0 1.3-0.7 0.4-1.7 0.4-2.3 0-0.7-0.4-0.7-1 0-1.3 0.6-0.4 1.6-0.4 2.3 0zm-1.1 0.6c-0.1-0.1-0.3 0-0.2 0.1 0.1 0.1 0.3 0 0.2-0.1z"/>
				<path id="Axo base 908 " class="s1" d="m163.8 278.3l-0.4 1-19.5-3.2q0.4-0.5 0.5-1z"/>
				<path id="Axo base 907 " class="s1" d="m82.9 281.9q-0.1 0.1-0.2 0.2l-9-5.3 0.5-1.1 5.3 3q1.4 1.7 3.4 3.2z"/>
				<path id="Axo Compound 217 " fill-rule="evenodd" class="s1" d="m173.6 281.9c-2.5 1.6-6.6 1.5-9.1 0.1-1-0.6-1.9-1.6-1.7-2.8l0.6 0.1 0.4-1-0.6-0.1c1.7-2.5 7.6-3.1 10.6-0.9 1.9 1.3 1.8 3.3-0.2 4.6zm-1.1-4.4c-1.9-1.1-5.1-1.1-7 0-2 1.1-2 2.9-0.1 4 2 1.1 5.1 1.2 7.1 0 1.9-1.1 1.9-2.9 0-4z"/>
				<path id="Axo Compound 216 " fill-rule="evenodd" class="s1" d="m172.5 281.5c-2 1.2-5.1 1.1-7.1 0-1.9-1.1-1.9-2.9 0.1-4 1.9-1.1 5.1-1.1 7 0 1.9 1.1 1.9 2.9 0 4zm-5.8-0.7c1.2 0.7 3.3 0.7 4.5 0 1.3-0.7 1.3-1.9 0-2.6-1.2-0.7-3.2-0.7-4.5 0-1.3 0.7-1.3 1.9 0 2.6z"/>
				<path id="Axo base 903 " class="s1" d="m119.1 277.1c-2.9 1.4-6.6 2.1-10.2 2 0.5-0.3 0.9-0.6 1.7-1 2.1-0.1 4.2-0.5 6-1.2q1.3 0 2.5 0.2z"/>
				<path id="Axo base 901 " class="s1" d="m140 277.4c-2.8 4.1-7.6 7-12.2 8.8q-0.4-0.5-0.9-0.9c4.3-1.7 8.7-4.3 11.4-8.1q0.8 0.2 1.7 0.2z"/>
				<path id="Axo base 900 " class="s1" d="m122.3 277.9c-4.1 2.4-9.6 3.4-14.9 3.1q0.2-0.5 0.6-1c4.6 0.2 9.2-0.7 12.7-2.6q0.8 0.2 1.6 0.5z"/>
				<path id="Axo base 889 " class="s1" d="m140.6 277.4l-3.6 7.6-2 0.3 2.3-4.8q1.6-1.5 2.7-3.1 0.3 0 0.6 0z"/>
				<path id="Axo Compound 215 " fill-rule="evenodd" class="s1" d="m167.5 280.3c-0.8-0.4-0.8-1.2 0-1.6 0.8-0.5 2.1-0.5 2.9 0 0.8 0.4 0.8 1.2 0 1.6-0.8 0.5-2.1 0.5-2.9 0zm1.7-0.9c-0.3-0.2-0.7 0.1-0.4 0.2 0.2 0.2 0.7-0.1 0.4-0.2z"/>
				<path id="Axo Compound 178 " fill-rule="evenodd" class="s1" d="m83.2 285.2c-1.6-1-1.6-2.6 0.1-3.5 1.6-1 4.4-1 6.1 0 1.7 1 1.6 2.6-0.1 3.5-1.6 1-4.4 1-6.1 0zm5.6-0.3c1.3-0.8 1.4-2.1 0-2.9-1.4-0.8-3.6-0.8-5 0-1.3 0.8-1.3 2.1 0 2.9 1.4 0.8 3.6 0.8 5 0z"/>
				<path id="Axo base 888 " class="s1" d="m164.3 281.9l-35.8 5.4q-0.2-0.5-0.6-0.9l35.4-5.4q0.4 0.5 1 0.9z"/>
				<path id="Axo Compound 177 " fill-rule="evenodd" class="s1" d="m83.8 284.9c-1.3-0.8-1.3-2.1 0-2.9 1.4-0.8 3.6-0.8 5 0 1.4 0.8 1.3 2.1 0 2.9-1.4 0.8-3.6 0.8-5 0zm3.8-2.2c-0.7-0.4-1.8-0.4-2.5 0-0.7 0.4-0.7 1.1 0 1.5 0.6 0.4 1.8 0.4 2.4 0 0.7-0.4 0.7-1.1 0.1-1.5z"/>
				<path id="Axo base 887 " class="s1" d="m164.8 282.1c-5.9 9.2-17.2 15.1-27.5 18.3q-0.4-0.4-0.9-0.8c9.9-3.1 20.8-8.8 26.5-17.5l1.4-0.2c0.3 0.2 0.2 0.1 0.5 0.2z"/>
				<path id="Axo base 885 " class="s1" d="m173.6 281.9c-6.7 12.1-21.9 19.4-35.3 23q0.2-0.6 0.2-1.2c12.3-3.4 26-10.1 32.7-20.8 0.8-0.2 1.6-0.5 2.4-1z"/>
				<path id="Axo Compound 176 " fill-rule="evenodd" class="s1" d="m87.5 284.1c-0.7 0.4-1.7 0.4-2.3 0-0.7-0.4-0.7-1 0-1.3 0.6-0.4 1.6-0.4 2.3 0 0.6 0.4 0.6 1 0 1.3zm-1.3-0.7c-0.1 0.1 0.1 0.2 0.2 0.1 0.1-0.1-0.1-0.2-0.2-0.1z"/>
				<path id="Axo Compound 208 " fill-rule="evenodd" class="s1" d="m126 292.2c-5.7 3.3-15.7 1-15.7-3.8 0.1-5.6 13.3-7.3 17.5-2.2 1.5 1.8 1.2 4.3-1.8 6zm-1.3-0.7c2.9-1.7 3-4.4 0.1-6.1-2.9-1.6-7.6-1.7-10.5 0-2.9 1.7-3 4.4-0.1 6.1 2.9 1.7 7.6 1.7 10.5 0z"/>
				<path id="Axo Compound 207 " fill-rule="evenodd" class="s1" d="m124.6 291.4c-2.8 1.6-7.4 1.6-10.2 0-2.8-1.6-2.8-4.3 0-5.9 2.8-1.6 7.4-1.6 10.2 0 2.9 1.7 2.8 4.3 0 5.9zm-1.2-0.7c2.1-1.2 2.1-3.2 0-4.5-2.1-1.2-5.6-1.2-7.8 0-2.1 1.2-2.1 3.2 0 4.5 2.1 1.2 5.6 1.2 7.8 0z"/>
				<path id="Axo base 880 " class="s1" d="m110.5 289.4c-7.2 0.2-15-1-21.6-4 0.4-0.1 0.8-0.4 1.1-0.7 6 2.6 13.2 3.9 20.3 3.7q0 0.6 0.2 1z"/>
				<path id="Axo base 877 " class="s1" d="m83.9 285.5l-13.1 7.5-1.2-0.7 13.1-7.5c0.3 0.3 0.8 0.6 1.2 0.7z"/>
				<path id="Axo base 876 " class="s1" d="m99.8 290.6l-1.9 0.3-9.2-5.4q0.1 0 0.2-0.1 2.6 1.2 5.5 2z"/>
				<path id="Axo base 878 " class="s1" d="m136.5 286.1l-5.2 11q-0.9-0.2-1.7-0.3l4.9-10.4z"/>
				<path id="Axo Compound 206 " fill-rule="evenodd" class="s1" d="m121.4 289.6c-1.1 0.6-2.8 0.6-3.8 0-1.1-0.7-1-1.6 0-2.2 1.1-0.7 2.8-0.6 3.8 0 1.1 0.6 1.1 1.6 0 2.2zm-1.2-1.5c-0.4-0.2-1-0.2-1.4 0-0.3 0.2-0.3 0.5 0 0.7 0.4 0.3 1 0.3 1.4 0 0.3-0.2 0.3-0.5 0-0.7z"/>
				<path id="Axo base 872 " class="s1" d="m110.7 290l-38.2 5.8c0-0.3 0.1-0.6 0.1-1 0-0.1 25.3-3.9 25.3-3.9 12.5-1.9 8-1.4 12.6-1.5q0.1 0.3 0.2 0.6z"/>
				<path id="Axo Compound 214 " fill-rule="evenodd" class="s1" d="m62 297.3c-2.7-1.5-2.3-4.3 1.1-5.5 2.2-0.8 5-0.8 7.1 0.2l-0.6 0.3 1.2 0.7 0.6-0.3c2.7 2.1 0.7 5-3.5 5.6-1.9 0.3-4.2 0-5.9-1zm7.9-0.4c2-1.2 2-3 0-4.1-1.9-1.1-5-1.1-7 0-1.9 1.1-1.9 2.9 0 4 1.9 1.2 5.1 1.2 7 0.1z"/>
				<path id="Axo base 870 " class="s1" d="m115.7 299.9q-0.5 0.4-0.9 0.9l-15.5-9.1 2-0.3z"/>
				<path id="Axo Compound 213 " fill-rule="evenodd" class="s1" d="m62.9 296.8c-1.9-1.1-1.9-2.9 0-4 2-1.1 5.1-1.1 7 0 2 1.1 2 2.9 0 4.1-1.9 1.1-5.1 1.1-7-0.1zm1.2-0.7c1.3 0.8 3.3 0.8 4.6 0 1.2-0.7 1.2-1.9 0-2.6-1.2-0.7-3.3-0.7-4.5 0-1.3 0.7-1.3 1.9-0.1 2.6z"/>
				<path id="Axo Compound 212 " fill-rule="evenodd" class="s1" d="m67.9 294c0.8 0.5 0.8 1.2 0 1.7-0.8 0.4-2.1 0.4-2.9 0-0.8-0.5-0.8-1.3 0-1.7 0.8-0.5 2.1-0.5 2.9 0zm-1.3 0.7c-0.2-0.2-0.7 0.1-0.4 0.2 0.3 0.2 0.7 0 0.4-0.2z"/>
				<path id="Axo base 868 " class="s1" d="m113.9 304.4c-14.9 0.7-30.1-1.9-42.2-7.7q0.4-0.4 0.7-0.9c11.9 5.7 26.8 8.2 41.4 7.6q0 0.5 0.1 1z"/>
				<path id="Axo Compound 195 " fill-rule="evenodd" class="s1" d="m137.5 306.4c-0.4 0.5-1.9 0.2-1.6-0.3 0.5-1.4 0-3.2-2.2-4.7-4.2-2.7-12.5-2.4-15.6 1.3-1.2 1.3-1.4 3-0.2 4.5 0.5 0.6 0.8 0.7 0.7 1-0.2 0.3-1 0.5-1.5 0.2-6.7-4.1-2.8-10.8 7-11.8 4-0.4 9.2 0.4 12.3 3 2.3 1.9 2.9 4.4 1.1 6.8zm-1.1-4.6c-0.5-0.9-1.4-1.8-2.6-2.5-6.8-3.9-18.7-1-18.3 4.6q0.5-1.4 1.9-2.6c4.9-3.9 15-3.5 19 0.5z"/>
				<path id="Axo base 866 " class="s1" d="m116.9 308.3c-18.3 1-37.1-2.3-51.5-9.9q1.3 0.1 2.5-0.1c13.5 6.8 30.9 9.8 47.7 9q0.6 0.5 1.3 1z"/>
				<path id="Axo base 863 " class="s1" d="m129.9 299.9c-0.1 0.3 0.2 0.1-1.7-0.1v-0.1q0.9 0.1 1.7 0.2z"/>
				<path id="Axo Compound 194 " fill-rule="evenodd" class="s1" d="m121.3 309.3c-4.4-1.8-5-5.1-2.2-7.3 2.2-1.8 6.5-2.8 10.7-1.9 2.5 0.5 5.5 1.9 5.9 4.4 0.8 4.5-8.2 7.3-14.4 4.8zm11.8-1.7c4.1-3.3-0.9-7.8-7.9-7.1-2.1 0.2-3.9 0.9-5.1 1.9-4.2 3.3 0.8 7.8 7.8 7.1 2.1-0.2 4-0.9 5.2-1.9z"/>
				<path id="Axo Compound 193 " fill-rule="evenodd" class="s1" d="m133.1 307.6c-2.9 2.4-8.8 2.6-12.3 0.6-2.5-1.5-3.1-4-0.7-5.8 4.1-3.4 13.2-2.2 14.4 1.8 0.3 1.2-0.1 2.4-1.4 3.4zm-12.7-2c0.9 3.1 8.1 4 11.3 1.4 1-0.7 1.3-1.7 1.1-2.6-1-3.1-8.1-4.1-11.3-1.5-1 0.8-1.4 1.8-1.1 2.7z"/>
				<path id="Axo base 861 " class="s1" d="m133.7 301.4c-0.5 0.2 0.1 0.1-1.7-0.6q0.2-0.1 0.3-0.1 0.8 0.3 1.4 0.7z"/>
				<path id="Axo base 860 " class="s1" d="m119.2 301.9c-1.2 0.9-0.7 1-1.1 0.8 0.3-0.5 0.6-0.7 0.9-0.9z"/>
				<path id="Axo Compound 192 " fill-rule="evenodd" class="s1" d="m123 303.5c1.4-1.2 4.2-1.4 6.2-0.6 3.2 1.3 2 4.2-1.9 4.6-3.8 0.4-6.6-2.1-4.3-4zm1.2 2.9c2.3 1.3 6.3 0.1 5.7-1.7-0.3-1.1-2-1.8-3.9-1.6-2.6 0.2-3.8 2.1-1.8 3.3z"/>
				<path id="Axo Compound 191 " fill-rule="evenodd" class="s1" d="m126 303.1c1.9-0.2 3.6 0.5 3.9 1.6 0.6 1.8-3.4 3-5.7 1.7-2-1.2-0.9-3.1 1.8-3.3zm0.9 2.8c1.2-0.1 1.8-1 0.9-1.6-1.2-0.6-3.1 0-2.8 0.9 0.1 0.6 1.2 0.8 1.9 0.7z"/>
				<path id="Axo base 858 " class="s1" d="m118.1 303.1q-0.4 0.5-0.6 1.1-0.1 0-0.3 0 0.2-0.6 0.5-1.1 0.2 0 0.4 0z"/>
				<path id="Axo base 909 " class="s1" d="m136 305.5q-0.1 0-0.3 0.1 0.1-0.5 0-1.1 0.2-0.1 0.3-0.1 0.1 0.6 0 1.1z"/>
				<path id="Axo base 850 " class="s1" d="m119.2 308.1q-0.3 0-0.6 0.1c0.1-0.3-0.2-0.4-0.7-1q0.2 0 0.3 0 0.4 0.5 1 0.9z"/>
			</g>
		</g>
	</g>
	<path id="&lt;Path&gt;" class="s2" d="m99.1 220.9c0 0 0 0-13.8-11-13.8-11.1 2.3-32.8 8-35.5 5.8-2.8 11.4-4.9 10.5-16.9-1-12-18-9.4-23.3-12.9-5.3-3.4-6.7-24.2-4.8-33 1.9-8.9 14.4 0.3 23.4-1 9.1-1.3-14.5-16.8-18.6-22.7-4-5.9-1.1-23.7 0.1-30.7 1.2-7.1 11.7-1.5 17.5-1.3 5.8 0.2 7.3-22.2 7.3-22.2 0 0 4.5 29.1-2.9 30-7.4 0.9-7.5 5.5-13.9 14.5-6.5 8.9 11 17.6 16.8 30.3 5.9 12.8-15 3.8-20.3 25.3-5.3 21.4 36.1-4.9 46.2 16.9 10 21.8-36.7 40.8-36.7 40.8-13.8 6.9 4.5 29.4 4.5 29.4z"/>
</svg>